<svg width="1334" height="406" viewBox="0 0 1334 406" fill="none" xmlns="http://www.w3.org/2000/svg">
<g opacity="0.08" clip-path="url(#clip0_384_1673)">
<path d="M190.5 -178V584" stroke="#CFF305" stroke-width="0.85" stroke-miterlimit="10"/>
<path d="M381 -178V584" stroke="#CFF305" stroke-width="0.85" stroke-miterlimit="10"/>
<path d="M571.5 -178V584" stroke="#CFF305" stroke-width="0.85" stroke-miterlimit="10"/>
<path d="M762 -178V584" stroke="#CFF305" stroke-width="0.85" stroke-miterlimit="10"/>
<path d="M952.5 -178V584" stroke="#CFF305" stroke-width="0.85" stroke-miterlimit="10"/>
<path d="M1143 -178V584" stroke="#CFF305" stroke-width="0.85" stroke-miterlimit="10"/>
<path d="M0 203H1524" stroke="#CFF305" stroke-width="0.85" stroke-miterlimit="10"/>
<path d="M0 12.5H1524" stroke="#CFF305" stroke-width="0.85" stroke-miterlimit="10"/>
<path d="M0 393.5H1524" stroke="#CFF305" stroke-width="0.85" stroke-miterlimit="10"/>
<path d="M7.6 219.3H3.3L2.2 223H0.5L4.4 210.7H6.5L10.4 223H8.7L7.6 219.3ZM7.2 217.9L5.5 212.1L3.8 217.9H7.2Z" fill="#CFF305"/>
<path d="M15.4996 217.2V215.9C17.2996 216 18.5996 215.7 18.5996 213.9C18.5996 212.5 17.6996 211.8 16.3996 211.8C14.7996 211.8 13.9996 212.6 13.9996 214.4H12.3996C12.3996 211.8 13.8996 210.4 16.3996 210.4C18.5996 210.4 20.1996 211.5 20.1996 213.8C20.1996 215 19.6996 216 18.3996 216.4C19.8996 216.9 20.4996 217.9 20.4996 219.5C20.4996 221.9 18.7996 223.3 16.2996 223.3C13.6996 223.3 12.1996 222 12.0996 219.3H13.6996C13.7996 221 14.5996 221.9 16.3996 221.9C18.1996 221.9 18.9996 220.8 18.9996 219.4C18.9996 217.9 18.0996 217.1 16.3996 217.1H15.4996V217.2Z" fill="#CFF305"/>
<path d="M7.6 28.8002H3.3L2.2 32.5002H0.5L4.4 20.2002H6.5L10.4 32.5002H8.7L7.6 28.8002ZM7.2 27.4002L5.5 21.6002L3.8 27.4002H7.2Z" fill="#CFF305"/>
<path d="M20.4992 32.5002H12.1992C12.3992 29.6002 13.1992 28.4002 15.6992 27.0002L17.2992 26.1002C18.3992 25.5002 18.9992 24.7002 18.9992 23.6002C18.9992 22.2002 18.2992 21.2001 16.6992 21.2001C14.8992 21.2001 14.0992 22.4002 13.9992 24.3002H12.3992C12.4992 21.5002 13.8992 19.9001 16.6992 19.9001C19.1992 19.9001 20.4992 21.6002 20.4992 23.6002C20.4992 25.2002 19.5992 26.4001 17.8992 27.4001L16.0992 28.3002C14.5992 29.1002 13.8992 30.0002 13.7992 31.1002H20.3992V32.5002H20.4992Z" fill="#CFF305"/>
<path d="M199.1 223V210.7H203.5C205.7 210.7 207.2 211.9 207.2 213.8C207.2 215 206.6 216.2 205.6 216.6C206.9 217 207.6 218 207.6 219.5C207.6 221.4 206.3 223 203.9 223H199.1ZM200.7 216H203.2C204.5 216 205.5 215.6 205.5 214.1C205.5 212.6 204.5 212.1 203.2 212.1H200.7V216ZM200.7 221.6H203.7C205.3 221.6 205.9 220.7 205.9 219.5C205.9 218.3 205.2 217.4 203.7 217.4H200.7V221.6Z" fill="#CFF305"/>
<path d="M213 217.2V215.9C214.8 216 216.1 215.7 216.1 213.9C216.1 212.5 215.2 211.8 213.9 211.8C212.3 211.8 211.5 212.6 211.5 214.4H209.9C209.9 211.8 211.4 210.4 213.9 210.4C216.1 210.4 217.7 211.5 217.7 213.8C217.7 215 217.2 216 215.9 216.4C217.4 216.9 218 217.9 218 219.5C218 221.9 216.3 223.3 213.8 223.3C211.2 223.3 209.7 222 209.6 219.3H211.2C211.3 221 212.1 221.9 213.9 221.9C215.7 221.9 216.5 220.8 216.5 219.4C216.5 217.9 215.6 217.1 213.9 217.1H213V217.2Z" fill="#CFF305"/>
<path d="M199.1 32.5002V20.2002H203.5C205.7 20.2002 207.2 21.4002 207.2 23.3002C207.2 24.5002 206.6 25.7002 205.6 26.1002C206.9 26.5002 207.6 27.5002 207.6 29.0002C207.6 30.9002 206.3 32.5002 203.9 32.5002H199.1ZM200.7 25.5002H203.2C204.5 25.5002 205.5 25.1002 205.5 23.6002C205.5 22.1002 204.5 21.6002 203.2 21.6002H200.7V25.5002ZM200.7 31.1002H203.7C205.3 31.1002 205.9 30.2002 205.9 29.0002C205.9 27.8002 205.2 26.9002 203.7 26.9002H200.7V31.1002Z" fill="#CFF305"/>
<path d="M217.999 32.5002H209.699C209.899 29.6002 210.699 28.4002 213.199 27.0002L214.799 26.1002C215.899 25.5002 216.499 24.7002 216.499 23.6002C216.499 22.2002 215.799 21.2001 214.199 21.2001C212.399 21.2001 211.599 22.4002 211.499 24.3002H209.899C209.999 21.5002 211.399 19.9001 214.199 19.9001C216.699 19.9001 217.999 21.6002 217.999 23.6002C217.999 25.2002 217.099 26.4001 215.399 27.4001L213.599 28.3002C212.099 29.1002 211.399 30.0002 211.299 31.1002H217.899V32.5002H217.999Z" fill="#CFF305"/>
<path d="M396.5 404.6C396.1 403.3 395.5 402.3 393.9 402.3C391.6 402.3 390.7 404.4 390.7 407.3C390.7 410.6 391.8 412.3 393.9 412.3C395.5 412.3 396.2 411.2 396.6 409.2H398.3C398 412.2 396.3 413.7 393.9 413.7C390.7 413.7 389 411.2 389 407.3C389 403.8 390.3 400.8 394 400.8C396.5 400.8 397.8 402.4 398.2 404.5H396.5V404.6Z" fill="#CFF305"/>
<path d="M396.5 214.1C396.1 212.8 395.5 211.8 393.9 211.8C391.6 211.8 390.7 213.9 390.7 216.8C390.7 220.1 391.8 221.8 393.9 221.8C395.5 221.8 396.2 220.7 396.6 218.7H398.3C398 221.7 396.3 223.2 393.9 223.2C390.7 223.2 389 220.7 389 216.8C389 213.3 390.3 210.3 394 210.3C396.5 210.3 397.8 211.9 398.2 214H396.5V214.1Z" fill="#CFF305"/>
<path d="M403.5 217.2V215.9C405.3 216 406.6 215.7 406.6 213.9C406.6 212.5 405.7 211.8 404.4 211.8C402.8 211.8 402 212.6 402 214.4H400.4C400.4 211.8 401.9 210.4 404.4 210.4C406.6 210.4 408.2 211.5 408.2 213.8C408.2 215 407.7 216 406.4 216.4C407.9 216.9 408.5 217.9 408.5 219.5C408.5 221.9 406.8 223.3 404.3 223.3C401.7 223.3 400.2 222 400.1 219.3H401.7C401.8 221 402.6 221.9 404.4 221.9C406.2 221.9 407 220.8 407 219.4C407 217.9 406.1 217.1 404.4 217.1H403.5V217.2Z" fill="#CFF305"/>
<path d="M396.5 23.6001C396.1 22.3001 395.5 21.3 393.9 21.3C391.6 21.3 390.7 23.4 390.7 26.3C390.7 29.6 391.8 31.3 393.9 31.3C395.5 31.3 396.2 30.2 396.6 28.2H398.3C398 31.2 396.3 32.7 393.9 32.7C390.7 32.7 389 30.2 389 26.3C389 22.8 390.3 19.8 394 19.8C396.5 19.8 397.8 21.4 398.2 23.5H396.5V23.6001Z" fill="#CFF305"/>
<path d="M408.499 32.5002H400.199C400.399 29.6002 401.199 28.4002 403.699 27.0002L405.299 26.1002C406.399 25.5002 406.999 24.7002 406.999 23.6002C406.999 22.2002 406.299 21.2001 404.699 21.2001C402.899 21.2001 402.099 22.4002 401.999 24.3002H400.399C400.499 21.5002 401.899 19.9001 404.699 19.9001C407.199 19.9001 408.499 21.6002 408.499 23.6002C408.499 25.2002 407.599 26.4001 405.899 27.4001L404.099 28.3002C402.599 29.1002 401.899 30.0002 401.799 31.1002H408.399V32.5002H408.499Z" fill="#CFF305"/>
<path d="M579.9 223V210.7H583.9C587 210.7 588.6 213.3 588.6 216.9C588.6 220.5 587 223.1 583.9 223.1H579.9V223ZM581.6 221.6H583.7C586 221.6 587 219.8 587 216.9C587 214 586 212.2 583.7 212.2H581.6V221.6Z" fill="#CFF305"/>
<path d="M594.101 217.2V215.9C595.901 216 597.201 215.7 597.201 213.9C597.201 212.5 596.301 211.8 595.001 211.8C593.401 211.8 592.601 212.6 592.601 214.4H591.001C591.001 211.8 592.501 210.4 595.001 210.4C597.201 210.4 598.801 211.5 598.801 213.8C598.801 215 598.301 216 597.001 216.4C598.501 216.9 599.101 217.9 599.101 219.5C599.101 221.9 597.401 223.3 594.901 223.3C592.301 223.3 590.801 222 590.701 219.3H592.301C592.401 221 593.201 221.9 595.001 221.9C596.801 221.9 597.601 220.8 597.601 219.4C597.601 217.9 596.701 217.1 595.001 217.1H594.101V217.2Z" fill="#CFF305"/>
<path d="M579.9 32.5002V20.2002H583.9C587 20.2002 588.6 22.8002 588.6 26.4002C588.6 30.0002 587 32.6002 583.9 32.6002H579.9V32.5002ZM581.6 31.1002H583.7C586 31.1002 587 29.3002 587 26.4002C587 23.5002 586 21.7002 583.7 21.7002H581.6V31.1002Z" fill="#CFF305"/>
<path d="M599.101 32.5002H590.801C591.001 29.6002 591.801 28.4002 594.301 27.0002L595.901 26.1002C597.001 25.5002 597.601 24.7002 597.601 23.6002C597.601 22.2002 596.901 21.2001 595.301 21.2001C593.501 21.2001 592.701 22.4002 592.601 24.3002H591.001C591.101 21.5002 592.501 19.9001 595.301 19.9001C597.801 19.9001 599.101 21.6002 599.101 23.6002C599.101 25.2002 598.201 26.4001 596.501 27.4001L594.701 28.3002C593.201 29.1002 592.501 30.0002 592.401 31.1002H599.001V32.5002H599.101Z" fill="#CFF305"/>
<path d="M772.799 217.4V221.5H778.699V222.9H771.199V210.6H778.399V212H772.799V215.8H778.099V217.2H772.799V217.4Z" fill="#CFF305"/>
<path d="M784.699 217.2V215.9C786.499 216 787.799 215.7 787.799 213.9C787.799 212.5 786.899 211.8 785.599 211.8C783.999 211.8 783.199 212.6 783.199 214.4H781.599C781.599 211.8 783.099 210.4 785.599 210.4C787.799 210.4 789.399 211.5 789.399 213.8C789.399 215 788.899 216 787.599 216.4C789.099 216.9 789.699 217.9 789.699 219.5C789.699 221.9 787.999 223.3 785.499 223.3C782.899 223.3 781.399 222 781.299 219.3H782.899C782.999 221 783.799 221.9 785.599 221.9C787.399 221.9 788.199 220.8 788.199 219.4C788.199 217.9 787.299 217.1 785.599 217.1H784.699V217.2Z" fill="#CFF305"/>
<path d="M772.799 26.9001V31.0001H778.699V32.4001H771.199V20.1001H778.399V21.5001H772.799V25.3001H778.099V26.7001H772.799V26.9001Z" fill="#CFF305"/>
<path d="M789.599 32.5002H781.299C781.499 29.6002 782.299 28.4002 784.799 27.0002L786.399 26.1002C787.499 25.5002 788.099 24.7002 788.099 23.6002C788.099 22.2002 787.399 21.2001 785.799 21.2001C783.999 21.2001 783.199 22.4002 783.099 24.3002H781.499C781.599 21.5002 782.999 19.9001 785.799 19.9001C788.299 19.9001 789.599 21.6002 789.599 23.6002C789.599 25.2002 788.699 26.4001 786.999 27.4001L785.199 28.3002C783.699 29.1002 782.999 30.0002 782.899 31.1002H789.499V32.5002H789.599Z" fill="#CFF305"/>
<path d="M963.2 217.4V223H961.6V210.7H969.2V212.1H963.2V215.9H968.3V217.3H963.2V217.4Z" fill="#CFF305"/>
<path d="M975 217.2V215.9C976.8 216 978.1 215.7 978.1 213.9C978.1 212.5 977.2 211.8 975.9 211.8C974.3 211.8 973.5 212.6 973.5 214.4H971.9C971.9 211.8 973.4 210.4 975.9 210.4C978.1 210.4 979.7 211.5 979.7 213.8C979.7 215 979.2 216 977.9 216.4C979.4 216.9 980 217.9 980 219.5C980 221.9 978.3 223.3 975.8 223.3C973.2 223.3 971.7 222 971.6 219.3H973.2C973.3 221 974.1 221.9 975.9 221.9C977.7 221.9 978.5 220.8 978.5 219.4C978.5 217.9 977.6 217.1 975.9 217.1H975V217.2Z" fill="#CFF305"/>
<path d="M963.2 26.9002V32.5002H961.6V20.2002H969.2V21.6002H963.2V25.4002H968.3V26.8002H963.2V26.9002Z" fill="#CFF305"/>
<path d="M979.9 32.5002H971.6C971.8 29.6002 972.6 28.4002 975.1 27.0002L976.7 26.1002C977.8 25.5002 978.4 24.7002 978.4 23.6002C978.4 22.2002 977.7 21.2001 976.1 21.2001C974.3 21.2001 973.5 22.4002 973.4 24.3002H971.8C971.9 21.5002 973.3 19.9001 976.1 19.9001C978.6 19.9001 979.9 21.6002 979.9 23.6002C979.9 25.2002 979 26.4001 977.3 27.4001L975.5 28.3002C974 29.1002 973.3 30.0002 973.2 31.1002H979.8V32.5002H979.9Z" fill="#CFF305"/>
<path d="M1160 407V413.5H1158.8L1158.7 411.8C1158.1 413.2 1157 413.8 1155.6 413.8C1152.7 413.8 1150.8 411.5 1150.8 407.4C1150.8 403.2 1152.8 400.9 1155.8 400.9C1158 400.9 1159.6 402 1160.1 404.6H1158.4C1158.1 402.9 1157.1 402.4 1155.8 402.4C1153.6 402.4 1152.5 404.3 1152.5 407.4C1152.5 410.8 1153.8 412.4 1155.6 412.4C1157.6 412.4 1158.5 410.8 1158.5 408.8V408.4H1155.7V407H1160Z" fill="#CFF305"/>
<path d="M1160 216.5V223H1158.8L1158.7 221.3C1158.1 222.7 1157 223.3 1155.6 223.3C1152.7 223.3 1150.8 221 1150.8 216.9C1150.8 212.7 1152.8 210.4 1155.8 210.4C1158 210.4 1159.6 211.5 1160.1 214.1H1158.4C1158.1 212.4 1157.1 211.9 1155.8 211.9C1153.6 211.9 1152.5 213.8 1152.5 216.9C1152.5 220.3 1153.8 221.9 1155.6 221.9C1157.6 221.9 1158.5 220.3 1158.5 218.3V217.9H1155.7V216.5H1160Z" fill="#CFF305"/>
<path d="M1165.5 217.2V215.9C1167.3 216 1168.6 215.7 1168.6 213.9C1168.6 212.5 1167.7 211.8 1166.4 211.8C1164.8 211.8 1164 212.6 1164 214.4H1162.4C1162.4 211.8 1163.9 210.4 1166.4 210.4C1168.6 210.4 1170.2 211.5 1170.2 213.8C1170.2 215 1169.7 216 1168.4 216.4C1169.9 216.9 1170.5 217.9 1170.5 219.5C1170.5 221.9 1168.8 223.3 1166.3 223.3C1163.7 223.3 1162.2 222 1162.1 219.3H1163.7C1163.8 221 1164.6 221.9 1166.4 221.9C1168.2 221.9 1169 220.8 1169 219.4C1169 217.9 1168.1 217.1 1166.4 217.1H1165.5V217.2Z" fill="#CFF305"/>
<path d="M1160 26.0002V32.5002H1158.8L1158.7 30.8002C1158.1 32.2002 1157 32.8002 1155.6 32.8002C1152.7 32.8002 1150.8 30.5001 1150.8 26.4001C1150.8 22.2001 1152.8 19.9001 1155.8 19.9001C1158 19.9001 1159.6 21.0002 1160.1 23.6002H1158.4C1158.1 21.9002 1157.1 21.4001 1155.8 21.4001C1153.6 21.4001 1152.5 23.3001 1152.5 26.4001C1152.5 29.8001 1153.8 31.4001 1155.6 31.4001C1157.6 31.4001 1158.5 29.8002 1158.5 27.8002V27.4001H1155.7V26.0002H1160Z" fill="#CFF305"/>
<path d="M1170.5 32.5002H1162.2C1162.4 29.6002 1163.2 28.4002 1165.7 27.0002L1167.3 26.1002C1168.4 25.5002 1169 24.7002 1169 23.6002C1169 22.2002 1168.3 21.2001 1166.7 21.2001C1164.9 21.2001 1164.1 22.4002 1164 24.3002H1162.4C1162.5 21.5002 1163.9 19.9001 1166.7 19.9001C1169.2 19.9001 1170.5 21.6002 1170.5 23.6002C1170.5 25.2002 1169.6 26.4001 1167.9 27.4001L1166.1 28.3002C1164.6 29.1002 1163.9 30.0002 1163.8 31.1002H1170.4V32.5002H1170.5Z" fill="#CFF305"/>
</g>
<path d="M380.932 381V406" stroke="#D5FD02"/>
<path d="M393 393.5L368 393.5" stroke="#D5FD02"/>
<path d="M952.932 381V406" stroke="#D5FD02"/>
<path d="M965 393.5L940 393.5" stroke="#D5FD02"/>
<path d="M952.932 0V25" stroke="#D5FD02"/>
<path d="M965 12.5L940 12.5" stroke="#D5FD02"/>
<path d="M380.932 0V25" stroke="#D5FD02"/>
<path d="M393 12.5L368 12.5" stroke="#D5FD02"/>
<defs>
<clipPath id="clip0_384_1673">
<rect width="1334" height="391" fill="white" transform="translate(0 10)"/>
</clipPath>
</defs>
</svg>
