<svg width="208" height="19" viewBox="0 0 208 19" fill="none" xmlns="http://www.w3.org/2000/svg">
<path d="M5.29121 18.14V2.888H0V0.86H12.6581V2.888H7.43889V18.14H5.29121Z" fill="#EDEDEA"/>
<path d="M23.8009 11.012C23.8009 10.292 23.7169 9.672 23.5489 9.152C23.3889 8.624 23.153 8.192 22.841 7.856C22.5371 7.512 22.1691 7.26 21.7372 7.1C21.3053 6.932 20.8213 6.848 20.2854 6.848C19.7575 6.848 19.2736 6.932 18.8336 7.1C18.3937 7.26 18.0137 7.512 17.6938 7.856C17.3818 8.192 17.1379 8.624 16.9619 9.152C16.7939 9.672 16.7099 10.292 16.7099 11.012V18.14H14.5743V0.86H16.7099V7.052C16.8619 6.756 17.0499 6.472 17.2739 6.2C17.5058 5.928 17.7858 5.692 18.1137 5.492C18.4417 5.284 18.8216 5.12 19.2536 5C19.6855 4.88 20.1814 4.82 20.7413 4.82C21.5252 4.82 22.2331 4.936 22.865 5.168C23.5049 5.4 24.0528 5.756 24.5088 6.236C24.9647 6.716 25.3167 7.324 25.5646 8.06C25.8126 8.788 25.9366 9.652 25.9366 10.652V18.14H23.8009V11.012Z" fill="#EDEDEA"/>
<path d="M34.6122 16.496C35.5081 16.496 36.252 16.3 36.8439 15.908C37.4358 15.516 37.9117 14.952 38.2717 14.216L40.3354 14.9C39.8234 16.06 39.0715 16.952 38.0797 17.576C37.0958 18.192 35.94 18.5 34.6122 18.5C33.6683 18.5 32.8085 18.336 32.0326 18.008C31.2567 17.68 30.5928 17.22 30.0409 16.628C29.497 16.028 29.073 15.308 28.7691 14.468C28.4731 13.628 28.3251 12.692 28.3251 11.66C28.3251 10.62 28.4731 9.68 28.7691 8.84C29.065 7.992 29.485 7.272 30.0289 6.68C30.5808 6.088 31.2407 5.632 32.0086 5.312C32.7765 4.984 33.6284 4.82 34.5642 4.82C35.5561 4.82 36.4359 4.992 37.2038 5.336C37.9717 5.68 38.6116 6.172 39.1235 6.812C39.6355 7.452 40.0114 8.232 40.2514 9.152C40.4993 10.072 40.5993 11.108 40.5513 12.26H30.6168C30.6648 12.932 30.7888 13.532 30.9887 14.06C31.1967 14.58 31.4727 15.02 31.8166 15.38C32.1606 15.74 32.5645 16.016 33.0284 16.208C33.5004 16.4 34.0283 16.496 34.6122 16.496ZM38.3317 10.544C38.2357 9.328 37.8637 8.396 37.2158 7.748C36.5679 7.092 35.684 6.764 34.5642 6.764C33.4604 6.764 32.5725 7.092 31.9006 7.748C31.2367 8.404 30.8248 9.336 30.6648 10.544H38.3317Z" fill="#EDEDEA"/>
<path d="M48.2665 18.14V0.86H50.4142V16.112H58.429V18.14H48.2665Z" fill="#EDEDEA"/>
<path d="M60.71 2.888V0.68H62.8457V2.888H60.71ZM60.71 18.14V5.18H62.8457V18.14H60.71Z" fill="#EDEDEA"/>
<path d="M74.1845 10.412C74.1845 9.764 74.1166 9.212 73.9806 8.756C73.8526 8.3 73.6646 7.932 73.4167 7.652C73.1767 7.372 72.8847 7.168 72.5408 7.04C72.1968 6.912 71.8129 6.848 71.389 6.848C70.973 6.848 70.5891 6.912 70.2371 7.04C69.8932 7.168 69.5972 7.372 69.3493 7.652C69.1013 7.932 68.9093 8.3 68.7734 8.756C68.6374 9.212 68.5694 9.764 68.5694 10.412V18.14H66.4337V5.18H68.5694V6.752C68.8813 6.176 69.3013 5.712 69.8292 5.36C70.3651 5 71.033 4.82 71.8329 4.82C72.7928 4.82 73.6046 5.004 74.2685 5.372C74.9324 5.74 75.4364 6.312 75.7803 7.088C76.1403 6.384 76.6282 5.832 77.2441 5.432C77.86 5.024 78.6039 4.82 79.4758 4.82C80.9395 4.82 82.0714 5.244 82.8713 6.092C83.6791 6.94 84.0831 8.26 84.0831 10.052V18.14H81.9474V10.412C81.9474 9.764 81.8794 9.212 81.7434 8.756C81.6154 8.3 81.4275 7.932 81.1795 7.652C80.9395 7.372 80.6476 7.168 80.3036 7.04C79.9597 6.912 79.5757 6.848 79.1518 6.848C78.7359 6.848 78.3519 6.912 78 7.04C77.656 7.168 77.3601 7.372 77.1121 7.652C76.8641 7.932 76.6722 8.3 76.5362 8.756C76.4002 9.212 76.3322 9.764 76.3322 10.412H76.3202V18.14H74.1845V10.412Z" fill="#EDEDEA"/>
<path d="M87.4482 2.888V0.68H89.5839V2.888H87.4482ZM87.4482 18.14V5.18H89.5839V18.14H87.4482Z" fill="#EDEDEA"/>
<path d="M91.7441 5.18H94.3717V0.847999H96.5074V5.18H100.419V7.196H96.5074V14.264C96.5074 14.952 96.6554 15.448 96.9513 15.752C97.2473 16.048 97.7352 16.196 98.4151 16.196H100.419V18.14H97.9112C97.3593 18.14 96.8633 18.064 96.4234 17.912C95.9915 17.76 95.6195 17.54 95.3076 17.252C95.0036 16.964 94.7717 16.612 94.6117 16.196C94.4517 15.78 94.3717 15.308 94.3717 14.78V7.196H91.7441V5.18Z" fill="#EDEDEA"/>
<path d="M108.265 16.496C109.161 16.496 109.905 16.3 110.497 15.908C111.089 15.516 111.565 14.952 111.925 14.216L113.988 14.9C113.476 16.06 112.725 16.952 111.733 17.576C110.749 18.192 109.593 18.5 108.265 18.5C107.321 18.5 106.462 18.336 105.686 18.008C104.91 17.68 104.246 17.22 103.694 16.628C103.15 16.028 102.726 15.308 102.422 14.468C102.126 13.628 101.978 12.692 101.978 11.66C101.978 10.62 102.126 9.68 102.422 8.84C102.718 7.992 103.138 7.272 103.682 6.68C104.234 6.088 104.894 5.632 105.662 5.312C106.43 4.984 107.281 4.82 108.217 4.82C109.209 4.82 110.089 4.992 110.857 5.336C111.625 5.68 112.265 6.172 112.777 6.812C113.289 7.452 113.664 8.232 113.904 9.152C114.152 10.072 114.252 11.108 114.204 12.26H104.27C104.318 12.932 104.442 13.532 104.642 14.06C104.85 14.58 105.126 15.02 105.47 15.38C105.814 15.74 106.218 16.016 106.682 16.208C107.153 16.4 107.681 16.496 108.265 16.496ZM111.985 10.544C111.889 9.328 111.517 8.396 110.869 7.748C110.221 7.092 109.337 6.764 108.217 6.764C107.113 6.764 106.226 7.092 105.554 7.748C104.89 8.404 104.478 9.336 104.318 10.544H111.985Z" fill="#EDEDEA"/>
<path d="M128.514 0.86V18.14H126.378V16.112C125.962 16.864 125.398 17.452 124.687 17.876C123.983 18.292 123.103 18.5 122.047 18.5C121.151 18.5 120.339 18.332 119.611 17.996C118.883 17.66 118.263 17.192 117.752 16.592C117.24 15.984 116.844 15.264 116.564 14.432C116.292 13.592 116.156 12.672 116.156 11.672C116.156 10.656 116.296 9.728 116.576 8.888C116.856 8.048 117.252 7.328 117.764 6.728C118.275 6.12 118.895 5.652 119.623 5.324C120.351 4.988 121.159 4.82 122.047 4.82C123.103 4.82 123.983 5.032 124.687 5.456C125.398 5.88 125.962 6.464 126.378 7.208V0.86H128.514ZM122.407 6.848C121.735 6.848 121.151 6.968 120.655 7.208C120.159 7.44 119.743 7.768 119.407 8.192C119.079 8.616 118.831 9.124 118.663 9.716C118.503 10.308 118.423 10.96 118.423 11.672C118.423 12.4 118.507 13.06 118.675 13.652C118.843 14.244 119.091 14.748 119.419 15.164C119.755 15.58 120.171 15.904 120.667 16.136C121.163 16.36 121.743 16.472 122.407 16.472C123.087 16.472 123.675 16.356 124.171 16.124C124.667 15.884 125.078 15.556 125.406 15.14C125.734 14.716 125.978 14.208 126.138 13.616C126.298 13.024 126.378 12.376 126.378 11.672C126.378 10.936 126.294 10.272 126.126 9.68C125.958 9.088 125.706 8.584 125.37 8.168C125.042 7.744 124.631 7.42 124.135 7.196C123.639 6.964 123.063 6.848 122.407 6.848Z" fill="#EDEDEA"/>
<path d="M143.78 18.5C142.485 18.5 141.337 18.28 140.337 17.84C139.337 17.4 138.493 16.784 137.805 15.992C137.125 15.2 136.605 14.252 136.245 13.148C135.894 12.044 135.718 10.828 135.718 9.5C135.718 8.164 135.894 6.944 136.245 5.84C136.605 4.736 137.125 3.788 137.805 2.996C138.493 2.204 139.337 1.592 140.337 1.16C141.337 0.72 142.485 0.5 143.78 0.5C144.78 0.5 145.692 0.632 146.516 0.896C147.34 1.16 148.072 1.536 148.712 2.024C149.352 2.512 149.895 3.104 150.343 3.8C150.791 4.496 151.139 5.272 151.387 6.128L149.216 6.704C149.04 6.064 148.792 5.488 148.472 4.976C148.16 4.456 147.776 4.016 147.32 3.656C146.872 3.296 146.352 3.02 145.76 2.828C145.168 2.636 144.508 2.54 143.78 2.54C142.828 2.54 141.989 2.708 141.261 3.044C140.541 3.38 139.937 3.856 139.449 4.472C138.961 5.08 138.593 5.812 138.345 6.668C138.097 7.524 137.973 8.468 137.973 9.5C137.973 10.532 138.093 11.476 138.333 12.332C138.581 13.188 138.945 13.924 139.425 14.54C139.913 15.148 140.517 15.62 141.237 15.956C141.965 16.292 142.812 16.46 143.78 16.46C144.508 16.46 145.168 16.364 145.76 16.172C146.352 15.98 146.872 15.704 147.32 15.344C147.776 14.984 148.16 14.548 148.472 14.036C148.792 13.516 149.04 12.936 149.216 12.296L151.387 12.872C151.139 13.728 150.791 14.504 150.343 15.2C149.895 15.896 149.352 16.488 148.712 16.976C148.072 17.464 147.34 17.84 146.516 18.104C145.692 18.368 144.78 18.5 143.78 18.5Z" fill="#EDEDEA"/>
<path d="M154.259 18.14V0.5H156.394V18.14H154.259Z" fill="#EDEDEA"/>
<path d="M161.89 12.296C161.89 13.016 161.97 13.64 162.13 14.168C162.298 14.688 162.534 15.12 162.838 15.464C163.15 15.808 163.522 16.064 163.954 16.232C164.386 16.392 164.87 16.472 165.405 16.472C165.941 16.472 166.429 16.392 166.869 16.232C167.309 16.064 167.685 15.812 167.997 15.476C168.309 15.132 168.549 14.696 168.717 14.168C168.893 13.64 168.981 13.016 168.981 12.296V5.18H171.117V18.14H168.981V16.268C168.829 16.564 168.637 16.848 168.405 17.12C168.181 17.392 167.905 17.632 167.577 17.84C167.249 18.04 166.869 18.2 166.437 18.32C166.005 18.44 165.509 18.5 164.949 18.5C164.174 18.5 163.466 18.384 162.826 18.152C162.186 17.92 161.638 17.564 161.182 17.084C160.726 16.604 160.374 16 160.126 15.272C159.878 14.536 159.754 13.668 159.754 12.668V5.18H161.89V12.296Z" fill="#EDEDEA"/>
<path d="M174.464 0.86H176.6V7.208C177.016 6.464 177.576 5.88 178.28 5.456C178.992 5.032 179.876 4.82 180.931 4.82C181.819 4.82 182.627 4.988 183.355 5.324C184.083 5.652 184.703 6.12 185.215 6.728C185.727 7.328 186.123 8.048 186.403 8.888C186.683 9.728 186.823 10.656 186.823 11.672C186.823 12.672 186.683 13.592 186.403 14.432C186.131 15.264 185.739 15.984 185.227 16.592C184.715 17.192 184.095 17.66 183.367 17.996C182.639 18.332 181.827 18.5 180.931 18.5C179.876 18.5 178.992 18.292 178.28 17.876C177.576 17.452 177.016 16.864 176.6 16.112V18.14H174.464V0.86ZM180.572 6.848C179.916 6.848 179.34 6.964 178.844 7.196C178.348 7.42 177.932 7.744 177.596 8.168C177.268 8.584 177.02 9.088 176.852 9.68C176.684 10.272 176.6 10.936 176.6 11.672C176.6 12.376 176.68 13.024 176.84 13.616C177 14.208 177.244 14.716 177.572 15.14C177.9 15.556 178.312 15.884 178.808 16.124C179.304 16.356 179.892 16.472 180.572 16.472C181.235 16.472 181.815 16.36 182.311 16.136C182.807 15.904 183.219 15.58 183.547 15.164C183.883 14.748 184.135 14.244 184.303 13.652C184.471 13.06 184.555 12.4 184.555 11.672C184.555 10.96 184.471 10.308 184.303 9.716C184.143 9.124 183.895 8.616 183.559 8.192C183.231 7.768 182.819 7.44 182.323 7.208C181.827 6.968 181.243 6.848 180.572 6.848Z" fill="#EDEDEA"/>
<path d="M198.725 9.86V0.86H200.069L203.357 6.344L206.644 0.86H207.988L208 9.86H206.44V3.992L203.861 8.384H202.853L200.285 3.992V9.86H198.725ZM192.306 9.86V2.372H189.211V0.86H197.022V2.372H193.938V9.86H192.306Z" fill="#EDEDEA"/>
</svg>
